<svg id="レイヤー_3" data-name="レイヤー 3" xmlns="http://www.w3.org/2000/svg" viewBox="0 0 509.82 656.83"><path d="M770.91,214.05l-262.64,5.88V209.14H770.63a2.31,2.31,0,0,0,2.32-2.31V188.58a2.31,2.31,0,0,0-2.37-2.31l-262.31,5.87V150A6.64,6.64,0,1,0,495,150v42.46l-3.58.08V150a6.64,6.64,0,1,0-13.27,0v42.84l-4.7.1V149.64a6.64,6.64,0,0,0-13.28,0v43.57l-45.08,1a2.32,2.32,0,0,0-2.26,2.31v10.3a2.31,2.31,0,0,0,2.31,2.31h45V221l-44.75,1a2.32,2.32,0,0,0-2.27,2.32v10.29a2.32,2.32,0,0,0,2.32,2.32h44.7v77.58L263.88,436.79l-.43-.27v83.59l37.69,23.48-37.69,23.48v94.49l222,138.27,222-138.27V567.07L669.7,543.59l37.69-23.48V436.52l-.43.27L508.27,313V236.93H771a2.32,2.32,0,0,0,2.31-2.32V216.36A2.31,2.31,0,0,0,770.91,214.05ZM495,209.14v11.08l-3.58.08V209.14Zm-21.55,0h4.7V220.6l-4.7.1Zm0,27.79h4.7v66.38l-4.7,2.93Zm79.38,159.79a70,70,0,0,1-40.09,99.17q-2.3-2.52-4.79-4.94a6.55,6.55,0,0,0,.32-2V444.73a91.44,91.44,0,0,0,18.28-64.38Zm51.95,32.36a92,92,0,0,1-12.48,79.13L537,542.66a95,95,0,0,0-10.92-28.55,91.81,91.81,0,0,0,55.35-99.57Zm-185.3,94A51.78,51.78,0,0,1,480,571.42l-63.72-39.69A91.88,91.88,0,0,0,419.48,523.11Zm71.94-144.82c1.27-2,2.47-4.09,3.58-6.16v53.58q-1.67,2.7-3.58,5.27Zm-13.27,66.26q-2.29,1.79-4.7,3.36V400.22c1.62-1.55,3.19-3.12,4.7-4.73Zm0,25.79v.15l-.15-.07Zm13.27,4.51v-13.1q1.83-1.41,3.58-2.91v21.38c-1.36-1-2.73-1.87-4.11-2.75A6.7,6.7,0,0,0,491.42,474.85ZM473.45,366v-3.8l3.23-2Q475.21,363.11,473.45,366Zm-13.28,88.69a69.86,69.86,0,0,1-45.39,1.5,91.46,91.46,0,0,0-17-24.51c.61,0,1.22,0,1.83,0,20,0,41.63-7.13,60.56-20.57Zm-62.06,18.06a69.86,69.86,0,0,1-.55,47.32L392.63,517l-12.48-7.78A70.65,70.65,0,0,0,347.9,440.4L361.33,432A69.81,69.81,0,0,1,398.11,472.74Zm103.13,92.2a73.54,73.54,0,0,0-77.69-64.16,91.31,91.31,0,0,0-.45-15.58c21-5.77,46.13.88,65.9,17.85,16.66,14.31,26.65,33.53,27.86,52.16ZM460.17,382.81a97.2,97.2,0,0,1-9.78,8.57c-16.63,12.7-36.41,19.28-53.54,18.52l63.32-39.44Zm-134,71.11a48.82,48.82,0,0,1,32.65,42l-50.06-31.18ZM634.1,612.72,485.42,705.34,336.74,612.72l37.7-23.48,111,69.14,111-69.14ZM626,487.22c.65-2.23,1.24-4.48,1.75-6.77a113.58,113.58,0,0,0,2.18-35.71l32.14,20ZM495,304.75l-3.58-2.23V236.93H495Z" transform="translate(-263.45 -143)"/></svg>