{
    "asset" : {
        "generator" : "Khronos glTF Blender I/O v1.4.40",
        "version" : "2.0"
    },
    "scene" : 0,
    "scenes" : [
        {
            "name" : "Scene",
            "nodes" : [
                0,
                1,
                2,
                3,
                4,
                5,
                6,
                7,
                8,
                9
            ]
        }
    ],
    "nodes" : [
        {
            "name" : "Light",
            "rotation" : [
                0.3826834559440613,
                0,
                0,
                0.9238795042037964
            ],
            "translation" : [
                1,
                1,
                1
            ]
        },
        {
            "mesh" : 0,
            "name" : "Cursor",
            "rotation" : [
                0.34192925691604614,
                0.44784072041511536,
                0.7033432126045227,
                0.4333951771259308
            ],
            "scale" : [
                0.9147661328315735,
                0.9147663116455078,
                0.9147663116455078
            ],
            "translation" : [
                -0.005911511369049549,
                0.06296699494123459,
                0.13514810800552368
            ]
        },
        {
            "mesh" : 1,
            "name" : "Cursor2",
            "rotation" : [
                0.47251102328300476,
                -0.24748516082763672,
                -0.03400827571749687,
                0.8451792001724243
            ],
            "scale" : [
                0.9363457560539246,
                0.9363456964492798,
                0.9363458156585693
            ],
            "translation" : [
                0.270964652299881,
                -0.14687231183052063,
                0.21631364524364471
            ]
        },
        {
            "name" : "Empty",
            "rotation" : [
                0.7071068286895752,
                0,
                0,
                0.7071068286895752
            ],
            "scale" : [
                0.5,
                0.5,
                0.5
            ]
        },
        {
            "mesh" : 2,
            "name" : "Sphere",
            "scale" : [
                0.06261686235666275,
                0.06261686235666275,
                0.06261686235666275
            ],
            "translation" : [
                0.10329803824424744,
                -0.4589689075946808,
                -0.06715922802686691
            ]
        },
        {
            "mesh" : 3,
            "name" : "Cylinder",
            "rotation" : [
                -0.13381065428256989,
                -0.09798087924718857,
                0.7956542372703552,
                0.5826053619384766
            ],
            "scale" : [
                1.027281641960144,
                1.0316505432128906,
                1.0272815227508545
            ],
            "translation" : [
                -0.039598215371370316,
                0.4658238887786865,
                -0.2235722541809082
            ]
        },
        {
            "mesh" : 4,
            "name" : "Torus",
            "rotation" : [
                0.2551789879798889,
                -0.14091089367866516,
                -0.2835269868373871,
                0.9135866165161133
            ],
            "scale" : [
                0.683124840259552,
                0.683124840259552,
                0.683124840259552
            ],
            "translation" : [
                0.2644615173339844,
                0.312456339597702,
                -0.06776963174343109
            ]
        },
        {
            "mesh" : 5,
            "name" : "Cursor3",
            "rotation" : [
                0.5405764579772949,
                0.18526691198349,
                -0.1383071094751358,
                0.8089032173156738
            ],
            "scale" : [
                0.9284994602203369,
                0.8184990286827087,
                0.9284995794296265
            ],
            "translation" : [
                -0.3727225661277771,
                0.26622360944747925,
                0.008791787549853325
            ]
        },
        {
            "name" : "Camera.001",
            "rotation" : [
                0.7071068286895752,
                0,
                0,
                0.7071067094802856
            ],
            "translation" : [
                0,
                0,
                1.1100000143051147
            ]
        },
        {
            "mesh" : 6,
            "name" : "Circle.001",
            "rotation" : [
                -0.24159778654575348,
                0.34878528118133545,
                -0.07998678088188171,
                0.9019874930381775
            ],
            "scale" : [
                1.195823311805725,
                1.195823311805725,
                1.195823311805725
            ],
            "translation" : [
                -0.2076050043106079,
                -0.14711299538612366,
                0
            ]
        }
    ],
    "materials" : [
        {
            "doubleSided" : true,
            "name" : "Material",
            "pbrMetallicRoughness" : {
                "metallicFactor" : 0,
                "roughnessFactor" : 0.800000011920929
            }
        }
    ],
    "meshes" : [
        {
            "name" : "Plane.001",
            "primitives" : [
                {
                    "attributes" : {
                        "POSITION" : 0,
                        "NORMAL" : 1,
                        "TEXCOORD_0" : 2
                    },
                    "indices" : 3,
                    "material" : 0
                }
            ]
        },
        {
            "name" : "Plane.002",
            "primitives" : [
                {
                    "attributes" : {
                        "POSITION" : 4,
                        "NORMAL" : 5,
                        "TEXCOORD_0" : 6
                    },
                    "indices" : 7,
                    "material" : 0
                }
            ]
        },
        {
            "name" : "Sphere",
            "primitives" : [
                {
                    "attributes" : {
                        "POSITION" : 8,
                        "NORMAL" : 9,
                        "TEXCOORD_0" : 10
                    },
                    "indices" : 11,
                    "material" : 0
                }
            ]
        },
        {
            "name" : "Cylinder",
            "primitives" : [
                {
                    "attributes" : {
                        "POSITION" : 12,
                        "NORMAL" : 13,
                        "TEXCOORD_0" : 14
                    },
                    "indices" : 15,
                    "material" : 0
                }
            ]
        },
        {
            "name" : "Torus",
            "primitives" : [
                {
                    "attributes" : {
                        "POSITION" : 16,
                        "NORMAL" : 17,
                        "TEXCOORD_0" : 18
                    },
                    "indices" : 19,
                    "material" : 0
                }
            ]
        },
        {
            "name" : "Plane.004",
            "primitives" : [
                {
                    "attributes" : {
                        "POSITION" : 20,
                        "NORMAL" : 21,
                        "TEXCOORD_0" : 22
                    },
                    "indices" : 23,
                    "material" : 0
                }
            ]
        },
        {
            "name" : "Circle.001",
            "primitives" : [
                {
                    "attributes" : {
                        "POSITION" : 24,
                        "NORMAL" : 25,
                        "TEXCOORD_0" : 26
                    },
                    "indices" : 27,
                    "material" : 0
                }
            ]
        }
    ],
    "accessors" : [
        {
            "bufferView" : 0,
            "componentType" : 5126,
            "count" : 171,
            "max" : [
                0.09036272764205933,
                0.02250000461935997,
                0.11237338930368423
            ],
            "min" : [
                -0.08817935734987259,
                -0.022500013932585716,
                -0.15758226811885834
            ],
            "type" : "VEC3"
        },
        {
            "bufferView" : 1,
            "componentType" : 5126,
            "count" : 171,
            "type" : "VEC3"
        },
        {
            "bufferView" : 2,
            "componentType" : 5126,
            "count" : 171,
            "type" : "VEC2"
        },
        {
            "bufferView" : 3,
            "componentType" : 5123,
            "count" : 876,
            "type" : "SCALAR"
        },
        {
            "bufferView" : 4,
            "componentType" : 5126,
            "count" : 668,
            "max" : [
                0.0761580839753151,
                0.027333343401551247,
                0.12000012397766113
            ],
            "min" : [
                -0.0761580839753151,
                -0.027333343401551247,
                -0.12000012397766113
            ],
            "type" : "VEC3"
        },
        {
            "bufferView" : 5,
            "componentType" : 5126,
            "count" : 668,
            "type" : "VEC3"
        },
        {
            "bufferView" : 6,
            "componentType" : 5126,
            "count" : 668,
            "type" : "VEC2"
        },
        {
            "bufferView" : 7,
            "componentType" : 5123,
            "count" : 3348,
            "type" : "SCALAR"
        },
        {
            "bufferView" : 8,
            "componentType" : 5126,
            "count" : 559,
            "max" : [
                1.000000238418579,
                1,
                1.0000003576278687
            ],
            "min" : [
                -0.9999998211860657,
                -1,
                -1
            ],
            "type" : "VEC3"
        },
        {
            "bufferView" : 9,
            "componentType" : 5126,
            "count" : 559,
            "type" : "VEC3"
        },
        {
            "bufferView" : 10,
            "componentType" : 5126,
            "count" : 559,
            "type" : "VEC2"
        },
        {
            "bufferView" : 11,
            "componentType" : 5123,
            "count" : 2880,
            "type" : "SCALAR"
        },
        {
            "bufferView" : 12,
            "componentType" : 5126,
            "count" : 541,
            "max" : [
                0.037480130791664124,
                0.19429084658622742,
                0.037479765713214874
            ],
            "min" : [
                -0.03748001158237457,
                -0.19429084658622742,
                -0.03748037666082382
            ],
            "type" : "VEC3"
        },
        {
            "bufferView" : 13,
            "componentType" : 5126,
            "count" : 541,
            "type" : "VEC3"
        },
        {
            "bufferView" : 14,
            "componentType" : 5126,
            "count" : 541,
            "type" : "VEC2"
        },
        {
            "bufferView" : 15,
            "componentType" : 5123,
            "count" : 1908,
            "type" : "SCALAR"
        },
        {
            "bufferView" : 16,
            "componentType" : 5126,
            "count" : 440,
            "max" : [
                0.29390305280685425,
                0.2934391498565674,
                0.05878062546253204
            ],
            "min" : [
                -1.893489631754619e-08,
                -0.2936003804206848,
                -0.05878062546253204
            ],
            "type" : "VEC3"
        },
        {
            "bufferView" : 17,
            "componentType" : 5126,
            "count" : 440,
            "type" : "VEC3"
        },
        {
            "bufferView" : 18,
            "componentType" : 5126,
            "count" : 440,
            "type" : "VEC2"
        },
        {
            "bufferView" : 19,
            "componentType" : 5123,
            "count" : 2364,
            "type" : "SCALAR"
        },
        {
            "bufferView" : 20,
            "componentType" : 5126,
            "count" : 500,
            "max" : [
                0.0504176989197731,
                0.014999999664723873,
                0.10000002384185791
            ],
            "min" : [
                -0.0504176989197731,
                -0.014999999664723873,
                -0.10000002384185791
            ],
            "type" : "VEC3"
        },
        {
            "bufferView" : 21,
            "componentType" : 5126,
            "count" : 500,
            "type" : "VEC3"
        },
        {
            "bufferView" : 22,
            "componentType" : 5126,
            "count" : 500,
            "type" : "VEC2"
        },
        {
            "bufferView" : 23,
            "componentType" : 5123,
            "count" : 2676,
            "type" : "SCALAR"
        },
        {
            "bufferView" : 24,
            "componentType" : 5126,
            "count" : 576,
            "max" : [
                0.1983439177274704,
                0.198343425989151,
                0.020905695855617523
            ],
            "min" : [
                -0.19834308326244354,
                -0.19834356009960175,
                -0.019094327464699745
            ],
            "type" : "VEC3"
        },
        {
            "bufferView" : 25,
            "componentType" : 5126,
            "count" : 576,
            "type" : "VEC3"
        },
        {
            "bufferView" : 26,
            "componentType" : 5126,
            "count" : 576,
            "type" : "VEC2"
        },
        {
            "bufferView" : 27,
            "componentType" : 5123,
            "count" : 3444,
            "type" : "SCALAR"
        }
    ],
    "bufferViews" : [
        {
            "buffer" : 0,
            "byteLength" : 2052,
            "byteOffset" : 0
        },
        {
            "buffer" : 0,
            "byteLength" : 2052,
            "byteOffset" : 2052
        },
        {
            "buffer" : 0,
            "byteLength" : 1368,
            "byteOffset" : 4104
        },
        {
            "buffer" : 0,
            "byteLength" : 1752,
            "byteOffset" : 5472
        },
        {
            "buffer" : 0,
            "byteLength" : 8016,
            "byteOffset" : 7224
        },
        {
            "buffer" : 0,
            "byteLength" : 8016,
            "byteOffset" : 15240
        },
        {
            "buffer" : 0,
            "byteLength" : 5344,
            "byteOffset" : 23256
        },
        {
            "buffer" : 0,
            "byteLength" : 6696,
            "byteOffset" : 28600
        },
        {
            "buffer" : 0,
            "byteLength" : 6708,
            "byteOffset" : 35296
        },
        {
            "buffer" : 0,
            "byteLength" : 6708,
            "byteOffset" : 42004
        },
        {
            "buffer" : 0,
            "byteLength" : 4472,
            "byteOffset" : 48712
        },
        {
            "buffer" : 0,
            "byteLength" : 5760,
            "byteOffset" : 53184
        },
        {
            "buffer" : 0,
            "byteLength" : 6492,
            "byteOffset" : 58944
        },
        {
            "buffer" : 0,
            "byteLength" : 6492,
            "byteOffset" : 65436
        },
        {
            "buffer" : 0,
            "byteLength" : 4328,
            "byteOffset" : 71928
        },
        {
            "buffer" : 0,
            "byteLength" : 3816,
            "byteOffset" : 76256
        },
        {
            "buffer" : 0,
            "byteLength" : 5280,
            "byteOffset" : 80072
        },
        {
            "buffer" : 0,
            "byteLength" : 5280,
            "byteOffset" : 85352
        },
        {
            "buffer" : 0,
            "byteLength" : 3520,
            "byteOffset" : 90632
        },
        {
            "buffer" : 0,
            "byteLength" : 4728,
            "byteOffset" : 94152
        },
        {
            "buffer" : 0,
            "byteLength" : 6000,
            "byteOffset" : 98880
        },
        {
            "buffer" : 0,
            "byteLength" : 6000,
            "byteOffset" : 104880
        },
        {
            "buffer" : 0,
            "byteLength" : 4000,
            "byteOffset" : 110880
        },
        {
            "buffer" : 0,
            "byteLength" : 5352,
            "byteOffset" : 114880
        },
        {
            "buffer" : 0,
            "byteLength" : 6912,
            "byteOffset" : 120232
        },
        {
            "buffer" : 0,
            "byteLength" : 6912,
            "byteOffset" : 127144
        },
        {
            "buffer" : 0,
            "byteLength" : 4608,
            "byteOffset" : 134056
        },
        {
            "buffer" : 0,
            "byteLength" : 6888,
            "byteOffset" : 138664
        }
    ],
    "buffers" : [
        {
            "byteLength" : 145552,
            "uri" : "data:application/octet-stream;base64,"
        }
    ]
}
